# xmcd CD database file
#
# Track frame offsets:
#	150
#	17064
#	32908
#	46042
#	61466
#	75627
#	87688
#	96847
#	111463
#	123763
#	134369
#	144636
#	158811
#	169208
#
# Disc length: 2444 seconds
#
# Revision: 0
# Processed by: cddbd v1.5.2PL0 Copyright (c) Steve Scherf et al.
# Submitted via: CDex 1.70beta2
#
DISCID=be098a0e
DTITLE=Alasdair Cameron - Alasdair Cameron
DYEAR=2013
DGENRE=Country
TTITLE0=The Ballad of Coach Captain Ken
TTITLE1=Parallel
TTITLE2=Stoked
TTITLE3=Special One
TTITLE4=Weekender
TTITLE5=Kingswood
TTITLE6=Thinnest Part
TTITLE7=Pleasantries
TTITLE8=Might Fly
TTITLE9=Your Friend With the Fender
TTITLE10=Impressions of You
TTITLE11=Stay a While
TTITLE12=Some Breeds
TTITLE13=Lullaby
EXTD=YEAR: 2013
EXTT0=
EXTT1=
EXTT2=
EXTT3=
EXTT4=
EXTT5=
EXTT6=
EXTT7=
EXTT8=
EXTT9=
EXTT10=
EXTT11=
EXTT12=
EXTT13=
PLAYORDER=
